<svg width="25" height="25" viewBox="0 0 25 25" fill="none" xmlns="http://www.w3.org/2000/svg">
<g id="review-star" clip-path="url(#clip0_499_1587)">
<path id="Vector" d="M18.9413 23.1511C18.672 23.1511 18.404 23.0684 18.1733 22.9038L12.75 19.0144L7.32668 22.9038C7.10198 23.0654 6.83195 23.152 6.55515 23.151C6.27835 23.15 6.00892 23.0617 5.78535 22.8984C5.56156 22.7362 5.39465 22.5075 5.30835 22.2449C5.22206 21.9823 5.22077 21.6992 5.30468 21.4358L7.32735 14.9078L1.95268 11.1204C1.72994 10.9561 1.56451 10.7258 1.47981 10.4622C1.39511 10.1987 1.39541 9.91516 1.48068 9.65178C1.56662 9.38904 1.73297 9.15995 1.95619 8.9969C2.17942 8.83384 2.44825 8.74507 2.72468 8.74311L9.38135 8.73311L11.5007 2.36711C11.5881 2.10486 11.7559 1.87677 11.9802 1.71515C12.2045 1.55352 12.4739 1.46655 12.7503 1.46655C13.0268 1.46655 13.2962 1.55352 13.5205 1.71515C13.7448 1.87677 13.9126 2.10486 14 2.36711L16.0833 8.73311L22.774 8.74311C23.0508 8.74467 23.32 8.83341 23.5435 8.99671C23.7669 9.16001 23.9332 9.38957 24.0188 9.65278C24.1043 9.91599 24.1048 10.1995 24.02 10.4629C23.9353 10.7264 23.7696 10.9565 23.5467 11.1204L18.172 14.9078L20.1947 21.4358C20.2788 21.6991 20.2776 21.9822 20.1915 22.2448C20.1053 22.5074 19.9384 22.7362 19.7147 22.8984C19.4904 23.0629 19.2195 23.1515 18.9413 23.1511Z" fill="#BFBFBF"/>
</g>
<defs>
<clipPath id="clip0_499_1587">
<rect width="24" height="24" fill="white" transform="translate(0.75 0.0664062)"/>
</clipPath>
</defs>
</svg>
